<svg version="1.1" id="Layer_1" xmlns="http://www.w3.org/2000/svg" x="0" y="0" viewBox="0 0 473.6 116" xml:space="preserve"><path fill="#FFF" d="M8.3 100.3L0 115.9v-85C0 13.8 13.8 0 30.9 0h84.9C91.7 7.5 66.6 24.4 50 43.7 31.7 64.8 21.4 79.3 8.3 100.3"/><path fill="#FFF" d="M116 0S79 17.3 67.7 43.3c-6 13.9-7.5 30.6-18.4 41.1-7.5 7.2-18 9.9-27.2 14.6-6 3.1-17.2 10.5-22 17.1h85c17.1 0 30.9-13.8 30.9-30.9V0zM158.9 60.7v-22c0-.5.4-.9.9-.9h13.9c2.6 0 4.8 1.1 4.8 4.8V60c0 2.7-2.2 4.8-4.8 4.8h-10.9c-2.1-.3-3.8-2-3.9-4.1m-4.5-29.6c-1.5 0-2.6 1.1-2.6 2.5v57.6h6.1c.5 0 .9-.4.9-.9V68.9c1 1.3 3 2.6 5.5 2.6h9.3c6.5 0 11.8-4.6 11.8-11.4V42.5c0-8-5.3-11.4-11.8-11.4h-19.2zM195.4 31.1v39.5c0 .5.4.9.9.9h6.1V31.9c0-.5-.4-.8-.9-.8h-6.1zm0-18.1v6.6c0 .5.4.9.9.9h6.1v-6.6c0-.5-.4-.9-.9-.9h-6.1zM219.6 46.9v-4.4c0-3.2 2.1-4.8 4.8-4.8h11.1c3.2 0 4.7 1.5 4.7 4.8v4.4c0 .5-.4.9-.9.9h-18.8c-.6-.1-.9-.5-.9-.9m4.8-15.8c-6.5 0-11.8 4-11.8 11.5v17.1c0 6.5 5.2 11.8 11.8 11.8h20.9v-5.8c0-.5-.4-.9-.9-.9h-20c-2.7 0-4.8-2.1-4.8-4.8v-7.2c.7 1 1.9 1.5 3.2 1.5h22.1c1.9 0 2.1-1.1 2.1-2.5v-9.3c0-7.5-5.2-11.5-11.8-11.5h-10.8zM263.2 60V42.6c0-2.7 2.1-4.8 4.8-4.8h10.9c2 .2 3.7 1.9 3.9 4.1v22c0 .5-.4.8-.9.8H268c-2.7.1-4.8-2-4.8-4.7m20.4-49.1c-.5 0-.9.4-.9.9v21.9c-1-1.4-3-2.6-5.6-2.6h-9.4c-6.5 0-11.6 5.2-11.6 11.8v16.8c0 6.5 5.2 11.8 11.8 11.8h19.2c1.5 0 2.6-1.1 2.6-2.6v-58h-6.1zM310.3 60.7v-22c0-.5.4-.9.9-.9H325c2.6 0 4.8 1.1 4.8 4.8V60c0 2.7-2.2 4.8-4.8 4.8h-10.9c-2.1-.3-3.7-2-3.8-4.1m-4.5-29.6c-1.5 0-2.6 1.1-2.6 2.5v57.6h6.1c.5 0 .9-.4.9-.9V68.9c1 1.3 3 2.6 5.5 2.6h9.3c6.5 0 11.8-4.6 11.8-11.4V42.5c0-8-5.3-11.4-11.8-11.4h-19.2zM346.8 31.1v39.5c0 .5.4.9.9.9h6.1V31.9c0-.5-.4-.8-.9-.8h-6.1zm0-18.1v6.6c0 .5.4.9.9.9h6.1v-6.6c0-.5-.4-.9-.9-.9h-6.1zM371.2 60.7v-22c0-.5.4-.9.9-.9H386c2.6 0 4.8 1.1 4.8 4.8V60c0 2.7-2.2 4.8-4.8 4.8h-10.9c-2.1-.3-3.7-2-3.9-4.1m-4.4-29.6c-1.5 0-2.6 1.1-2.6 2.5v57.6h6.1c.5 0 .9-.4.9-.9V68.9c1 1.3 3 2.6 5.5 2.6h9.3c6.5 0 11.8-4.6 11.8-11.4V42.5c0-8-5.3-11.4-11.8-11.4h-19.2zM414.5 46.9v-4.4c0-3.2 2.1-4.8 4.8-4.8h11.1c3.1 0 4.7 1.5 4.7 4.8v4.4c0 .5-.4.9-.9.9h-18.8c-.6-.1-.9-.5-.9-.9m4.8-15.8c-6.5 0-11.8 4-11.8 11.5v17.1c0 6.5 5.2 11.8 11.8 11.8h20.9v-5.8c0-.5-.4-.9-.9-.9h-20c-2.7 0-4.8-2.1-4.8-4.8v-7.2c.7 1 1.9 1.5 3.1 1.5h22.1c1.9 0 2.1-1.1 2.1-2.5v-9.3c0-7.5-5.2-11.5-11.8-11.5h-10.7zM464.2 31.1c-2.5 0-4.5 1.2-5.5 2.6v-1.8c0-.5-.4-.8-.9-.8h-6.1v39.5c0 .5.4.9.9.9h6.1v-30c.2-1.9 1.7-3.6 3.9-3.6h10.1c.5 0 .9-.4.9-.9v-5.8h-9.4z"/></svg>